<svg xmlns="http://www.w3.org/2000/svg" xmlns:xlink="http://www.w3.org/1999/xlink" width="39.515"
    height="39.515" viewBox="0 0 39.515 39.515">
    <defs>
        <style>
            .a,.e{fill:#f4f4f4;}.a,.d{stroke:#4e4e4e;}.b{opacity:0;clip-path:url(#e);}.c{fill:#d5d5d5;}.d{fill:none;stroke-miterlimit:10;}.f,.g{stroke:none;}.g{fill:#4e4e4e;}.h{filter:url(#h);}.i{filter:url(#f);}.j{filter:url(#c);}</style>
        <filter id="a" x="0" y="0" width="39.515" height="39.515" filterUnits="userSpaceOnUse">
            <feOffset dy="1" input="SourceAlpha" />
            <feGaussianBlur stdDeviation="2" result="b" />
            <feFlood flood-opacity="0.161" />
            <feComposite operator="in" in2="b" />
            <feComposite in="SourceGraphic" />
        </filter>
        <filter id="c" x="0" y="0" width="39.515" height="39.515" filterUnits="userSpaceOnUse">
            <feOffset dy="1" input="SourceAlpha" />
            <feGaussianBlur stdDeviation="2" result="d" />
            <feFlood flood-opacity="0.161" />
            <feComposite operator="in" in2="d" />
            <feComposite in="SourceGraphic" />
        </filter>
        <clipPath id="e">
            <g class="j" transform="matrix(1, 0, 0, 1, 0, 0)">
                <path class="a"
                    d="M13.758,0A13.758,13.758,0,1,1,0,13.758,13.758,13.758,0,0,1,13.758,0Z" />
            </g>
        </clipPath>
        <filter id="f" x="0" y="0" width="39.515" height="39.515" filterUnits="userSpaceOnUse">
            <feOffset dy="1" input="SourceAlpha" />
            <feGaussianBlur stdDeviation="2" result="g" />
            <feFlood flood-opacity="0.161" />
            <feComposite operator="in" in2="g" />
            <feComposite in="SourceGraphic" />
        </filter>
        <filter id="h" x="0" y="0" width="39.515" height="39.515" filterUnits="userSpaceOnUse">
            <feOffset dy="1" input="SourceAlpha" />
            <feGaussianBlur stdDeviation="2" result="i" />
            <feFlood flood-opacity="0.161" />
            <feComposite operator="in" in2="i" />
            <feComposite in="SourceGraphic" />
        </filter>
    </defs>
    <g transform="translate(6 5)">
        <g class="b">
            <g class="i" transform="matrix(1, 0, 0, 1, -6, -5)">
                <g class="c" transform="translate(6 5)">
                    <path class="f"
                        d="M 13.75750637054443 27.01505661010742 C 10.21629619598389 27.01505661010742 6.887046337127686 25.63603591918945 4.383036136627197 23.13201713562012 C 1.879016399383545 20.62799644470215 0.4999963641166687 17.29873657226562 0.4999963641166687 13.75752639770508 C 0.4999963641166687 10.21631622314453 1.879016399383545 6.887056350708008 4.383036136627197 4.383036613464355 C 6.887046337127686 1.879016399383545 10.21629619598389 0.4999963939189911 13.75750637054443 0.4999963939189911 C 17.29871559143066 0.4999963939189911 20.62796592712402 1.879016399383545 23.13197708129883 4.383036613464355 C 25.63599586486816 6.887056350708008 27.01501655578613 10.21631622314453 27.01501655578613 13.75752639770508 C 27.01501655578613 17.29873657226562 25.63599586486816 20.62799644470215 23.13197708129883 23.13201713562012 C 20.62796592712402 25.63603591918945 17.29871559143066 27.01505661010742 13.75750637054443 27.01505661010742 Z" />
                    <path class="g"
                        d="M 13.75750637054443 0.9999961853027344 C 10.34985542297363 0.9999961853027344 7.14616584777832 2.327016830444336 4.73658561706543 4.73658561706543 C 2.327007293701172 7.146177291870117 0.9999961853027344 10.34986686706543 0.9999961853027344 13.75752639770508 C 0.9999961853027344 17.16518592834473 2.327007293701172 20.36887741088867 4.73658561706543 22.77846527099609 C 7.14616584777832 25.18803596496582 10.34985542297363 26.51505661010742 13.75750637054443 26.51505661010742 C 17.16515731811523 26.51505661010742 20.36884689331055 25.18803596496582 22.77842712402344 22.77846527099609 C 25.18800735473633 20.36887741088867 26.51501655578613 17.16518592834473 26.51501655578613 13.75752639770508 C 26.51501655578613 10.34986686706543 25.18800735473633 7.146177291870117 22.77842712402344 4.73658561706543 C 20.36884689331055 2.327016830444336 17.16515731811523 0.9999961853027344 13.75750637054443 0.9999961853027344 M 13.75750637054443 -3.814697265625e-06 C 21.35556602478027 -3.814697265625e-06 27.51501655578613 6.159456253051758 27.51501655578613 13.75752639770508 C 27.51501655578613 21.3555965423584 21.35556602478027 27.51505661010742 13.75750637054443 27.51505661010742 C 6.159446716308594 27.51505661010742 -3.814697265625e-06 21.3555965423584 -3.814697265625e-06 13.75752639770508 C -3.814697265625e-06 6.159456253051758 6.159446716308594 -3.814697265625e-06 13.75750637054443 -3.814697265625e-06 Z" />
                </g>
            </g>
            <line class="d" x2="8.354" transform="translate(15.566 14.122) rotate(180)" />
            <path class="d"
                d="M0,5.14V.8S.144-.554.72.26L4.9,7.581a1.226,1.226,0,0,1,0,1.627L.72,16.528s-.576.542-.72-.813V11.376"
                transform="translate(17.555 22.232) rotate(180)" />
        </g>
        <g class="h" transform="matrix(1, 0, 0, 1, -6, -5)">
            <g class="e" transform="translate(6 5)">
                <path class="f"
                    d="M 13.75750637054443 27.01505661010742 C 10.21629619598389 27.01505661010742 6.887046337127686 25.63603591918945 4.383036136627197 23.13201713562012 C 1.879016399383545 20.62799644470215 0.4999963641166687 17.29873657226562 0.4999963641166687 13.75752639770508 C 0.4999963641166687 10.21631622314453 1.879016399383545 6.887056350708008 4.383036136627197 4.383036613464355 C 6.887046337127686 1.879016399383545 10.21629619598389 0.4999963939189911 13.75750637054443 0.4999963939189911 C 17.29871559143066 0.4999963939189911 20.62796592712402 1.879016399383545 23.13197708129883 4.383036613464355 C 25.63599586486816 6.887056350708008 27.01501655578613 10.21631622314453 27.01501655578613 13.75752639770508 C 27.01501655578613 17.29873657226562 25.63599586486816 20.62799644470215 23.13197708129883 23.13201713562012 C 20.62796592712402 25.63603591918945 17.29871559143066 27.01505661010742 13.75750637054443 27.01505661010742 Z" />
                <path class="g"
                    d="M 13.75750637054443 0.9999961853027344 C 10.34985542297363 0.9999961853027344 7.14616584777832 2.327016830444336 4.73658561706543 4.73658561706543 C 2.327007293701172 7.146177291870117 0.9999961853027344 10.34986686706543 0.9999961853027344 13.75752639770508 C 0.9999961853027344 17.16518592834473 2.327007293701172 20.36887741088867 4.73658561706543 22.77846527099609 C 7.14616584777832 25.18803596496582 10.34985542297363 26.51505661010742 13.75750637054443 26.51505661010742 C 17.16515731811523 26.51505661010742 20.36884689331055 25.18803596496582 22.77842712402344 22.77846527099609 C 25.18800735473633 20.36887741088867 26.51501655578613 17.16518592834473 26.51501655578613 13.75752639770508 C 26.51501655578613 10.34986686706543 25.18800735473633 7.146177291870117 22.77842712402344 4.73658561706543 C 20.36884689331055 2.327016830444336 17.16515731811523 0.9999961853027344 13.75750637054443 0.9999961853027344 M 13.75750637054443 -3.814697265625e-06 C 21.35556602478027 -3.814697265625e-06 27.51501655578613 6.159456253051758 27.51501655578613 13.75752639770508 C 27.51501655578613 21.3555965423584 21.35556602478027 27.51505661010742 13.75750637054443 27.51505661010742 C 6.159446716308594 27.51505661010742 -3.814697265625e-06 21.3555965423584 -3.814697265625e-06 13.75752639770508 C -3.814697265625e-06 6.159456253051758 6.159446716308594 -3.814697265625e-06 13.75750637054443 -3.814697265625e-06 Z" />
            </g>
        </g>
        <line class="d" x2="8.354" transform="translate(20.019 13.122) rotate(180)" />
        <path class="d"
            d="M0,3.794V.592s.157-1,.787-.4L5.354,5.6a.709.709,0,0,1,0,1.2L.787,12.2s-.63.4-.787-.6V8.4"
            transform="translate(12.626 19.398) rotate(180)" />
    </g>
</svg>